# xmcd CD database file
#
# Track frame offsets:
#	150
#	30341
#	55927
#	83848
#	113656
#	132055
#	181434
#	208656
#	246750
#
# Disc length: 3576 seconds
#
# Revision: 0
# Processed by: cddbd v1.5.2PL0 Copyright (c) Steve Scherf et al.
# Submitted via: CDex 1.51
#
DISCID=6f0df609
DTITLE=Donald Byrd - Off to the Races - Byrd in Hand - Fuego CD2
DYEAR=1958
DGENRE=Jazz
TTITLE0=Bronze Dance
TTITLE1=Clarion Calls
TTITLE2=The Injuns
TTITLE3=Fuego
TTITLE4=Bup a Loup
TTITLE5=Funky mama
TTITLE6=Low Life
TTITLE7=Lament
TTITLE8=Amen
EXTD=YEAR: 1958
EXTT0=
EXTT1=
EXTT2=
EXTT3=
EXTT4=
EXTT5=
EXTT6=
EXTT7=
EXTT8=
PLAYORDER=
